<mxfile host="app.diagrams.net" modified="2022-02-20T07:57:06.609Z" agent="5.0 (Windows NT 10.0; Win64; x64) AppleWebKit/537.36 (KHTML, like Gecko) Chrome/98.0.4758.102 Safari/537.36" etag="h2CSYA8JJzk1WdGsg6CN" version="16.6.1" type="github">
  <diagram id="LV1_jyROSB4q5FhmN_DN" name="Page-1">
    <mxGraphModel dx="2249" dy="762" grid="1" gridSize="10" guides="1" tooltips="1" connect="1" arrows="1" fold="1" page="1" pageScale="1" pageWidth="827" pageHeight="1169" math="0" shadow="0">
      <root>
        <mxCell id="0" />
        <mxCell id="1" parent="0" />
        <mxCell id="s1sZhIJlIn24XAroQYDZ-1" value="" style="edgeStyle=orthogonalEdgeStyle;rounded=0;orthogonalLoop=1;jettySize=auto;html=1;" edge="1" parent="1" source="s1sZhIJlIn24XAroQYDZ-2" target="s1sZhIJlIn24XAroQYDZ-5">
          <mxGeometry relative="1" as="geometry" />
        </mxCell>
        <mxCell id="s1sZhIJlIn24XAroQYDZ-2" value="exportMethod（1）：按照企业来拆分导出所有的数据" style="rounded=0;whiteSpace=wrap;html=1;fillColor=#d5e8d4;strokeColor=#82b366;" vertex="1" parent="1">
          <mxGeometry x="80" y="40" width="320" height="40" as="geometry" />
        </mxCell>
        <mxCell id="s1sZhIJlIn24XAroQYDZ-3" value="" style="edgeStyle=orthogonalEdgeStyle;rounded=0;orthogonalLoop=1;jettySize=auto;html=1;" edge="1" parent="1" source="s1sZhIJlIn24XAroQYDZ-4" target="s1sZhIJlIn24XAroQYDZ-6">
          <mxGeometry relative="1" as="geometry">
            <Array as="points">
              <mxPoint x="600" y="100" />
              <mxPoint x="600" y="100" />
            </Array>
          </mxGeometry>
        </mxCell>
        <mxCell id="s1sZhIJlIn24XAroQYDZ-4" value="exportMethod（0）：一个excel导出所有维度的数据" style="rounded=0;whiteSpace=wrap;html=1;fillColor=#d5e8d4;strokeColor=#82b366;" vertex="1" parent="1">
          <mxGeometry x="430" y="40" width="330" height="40" as="geometry" />
        </mxCell>
        <mxCell id="s1sZhIJlIn24XAroQYDZ-16" style="edgeStyle=orthogonalEdgeStyle;rounded=0;orthogonalLoop=1;jettySize=auto;html=1;exitX=0.5;exitY=1;exitDx=0;exitDy=0;entryX=0.5;entryY=0;entryDx=0;entryDy=0;" edge="1" parent="1" source="s1sZhIJlIn24XAroQYDZ-5" target="s1sZhIJlIn24XAroQYDZ-7">
          <mxGeometry relative="1" as="geometry">
            <Array as="points">
              <mxPoint x="240" y="180" />
              <mxPoint x="240" y="180" />
            </Array>
          </mxGeometry>
        </mxCell>
        <mxCell id="s1sZhIJlIn24XAroQYDZ-5" value="generateExcelByEid" style="rounded=0;whiteSpace=wrap;html=1;fillColor=#ffe6cc;strokeColor=#d79b00;" vertex="1" parent="1">
          <mxGeometry x="160" y="120" width="160" height="40" as="geometry" />
        </mxCell>
        <mxCell id="s1sZhIJlIn24XAroQYDZ-17" style="edgeStyle=orthogonalEdgeStyle;rounded=0;orthogonalLoop=1;jettySize=auto;html=1;exitX=0.5;exitY=1;exitDx=0;exitDy=0;entryX=0.5;entryY=0;entryDx=0;entryDy=0;" edge="1" parent="1" source="s1sZhIJlIn24XAroQYDZ-6" target="s1sZhIJlIn24XAroQYDZ-8">
          <mxGeometry relative="1" as="geometry" />
        </mxCell>
        <mxCell id="s1sZhIJlIn24XAroQYDZ-6" value="generateExcel" style="rounded=0;whiteSpace=wrap;html=1;fillColor=#ffe6cc;strokeColor=#d79b00;" vertex="1" parent="1">
          <mxGeometry x="520" y="120" width="160" height="40" as="geometry" />
        </mxCell>
        <mxCell id="s1sZhIJlIn24XAroQYDZ-7" value="1、getWorkBookTemplate:获取exce模板" style="rounded=0;whiteSpace=wrap;html=1;fillColor=#dae8fc;strokeColor=#6c8ebf;" vertex="1" parent="1">
          <mxGeometry x="120" y="200" width="240" height="40" as="geometry" />
        </mxCell>
        <mxCell id="s1sZhIJlIn24XAroQYDZ-13" style="edgeStyle=orthogonalEdgeStyle;rounded=0;orthogonalLoop=1;jettySize=auto;html=1;exitX=0.5;exitY=1;exitDx=0;exitDy=0;entryX=0.5;entryY=0;entryDx=0;entryDy=0;" edge="1" parent="1" source="s1sZhIJlIn24XAroQYDZ-8" target="s1sZhIJlIn24XAroQYDZ-11">
          <mxGeometry relative="1" as="geometry">
            <mxPoint x="120" y="310" as="targetPoint" />
            <Array as="points">
              <mxPoint x="600" y="280" />
              <mxPoint x="120" y="280" />
            </Array>
          </mxGeometry>
        </mxCell>
        <mxCell id="s1sZhIJlIn24XAroQYDZ-14" style="edgeStyle=orthogonalEdgeStyle;rounded=0;orthogonalLoop=1;jettySize=auto;html=1;exitX=0.5;exitY=1;exitDx=0;exitDy=0;" edge="1" parent="1" source="s1sZhIJlIn24XAroQYDZ-8" target="s1sZhIJlIn24XAroQYDZ-9">
          <mxGeometry relative="1" as="geometry">
            <Array as="points">
              <mxPoint x="600" y="280" />
              <mxPoint x="400" y="280" />
            </Array>
          </mxGeometry>
        </mxCell>
        <mxCell id="s1sZhIJlIn24XAroQYDZ-15" style="edgeStyle=orthogonalEdgeStyle;rounded=0;orthogonalLoop=1;jettySize=auto;html=1;exitX=0.5;exitY=1;exitDx=0;exitDy=0;entryX=0.6;entryY=-0.1;entryDx=0;entryDy=0;entryPerimeter=0;" edge="1" parent="1" source="s1sZhIJlIn24XAroQYDZ-8" target="s1sZhIJlIn24XAroQYDZ-10">
          <mxGeometry relative="1" as="geometry" />
        </mxCell>
        <mxCell id="s1sZhIJlIn24XAroQYDZ-8" value="2、writeSheets:导出所有维度的数据" style="rounded=0;whiteSpace=wrap;html=1;fillColor=#dae8fc;strokeColor=#6c8ebf;" vertex="1" parent="1">
          <mxGeometry x="480" y="200" width="240" height="40" as="geometry" />
        </mxCell>
        <mxCell id="s1sZhIJlIn24XAroQYDZ-9" value="2、addWorksheet：添加表头" style="rounded=0;whiteSpace=wrap;html=1;fillColor=#fff2cc;strokeColor=#d6b656;" vertex="1" parent="1">
          <mxGeometry x="320" y="320" width="200" height="40" as="geometry" />
        </mxCell>
        <mxCell id="s1sZhIJlIn24XAroQYDZ-10" value="3、addRowsBySheet：填充表体" style="rounded=0;whiteSpace=wrap;html=1;fillColor=#fff2cc;strokeColor=#d6b656;" vertex="1" parent="1">
          <mxGeometry x="600" y="320" width="200" height="40" as="geometry" />
        </mxCell>
        <mxCell id="s1sZhIJlIn24XAroQYDZ-11" value="1、getSheetInstances：获取sheet实例" style="rounded=0;whiteSpace=wrap;html=1;fillColor=#fff2cc;strokeColor=#d6b656;" vertex="1" parent="1">
          <mxGeometry x="-10" y="320" width="249" height="40" as="geometry" />
        </mxCell>
        <mxCell id="s1sZhIJlIn24XAroQYDZ-22" style="edgeStyle=orthogonalEdgeStyle;rounded=0;orthogonalLoop=1;jettySize=auto;html=1;exitX=0.5;exitY=0;exitDx=0;exitDy=0;entryX=0.5;entryY=1;entryDx=0;entryDy=0;" edge="1" parent="1" source="s1sZhIJlIn24XAroQYDZ-12" target="s1sZhIJlIn24XAroQYDZ-9">
          <mxGeometry relative="1" as="geometry">
            <Array as="points">
              <mxPoint x="520" y="440" />
              <mxPoint x="520" y="400" />
              <mxPoint x="400" y="400" />
            </Array>
          </mxGeometry>
        </mxCell>
        <mxCell id="s1sZhIJlIn24XAroQYDZ-23" style="edgeStyle=orthogonalEdgeStyle;rounded=0;orthogonalLoop=1;jettySize=auto;html=1;exitX=0.5;exitY=0;exitDx=0;exitDy=0;entryX=0.5;entryY=1;entryDx=0;entryDy=0;" edge="1" parent="1" source="s1sZhIJlIn24XAroQYDZ-12" target="s1sZhIJlIn24XAroQYDZ-10">
          <mxGeometry relative="1" as="geometry">
            <Array as="points">
              <mxPoint x="520" y="440" />
              <mxPoint x="520" y="400" />
              <mxPoint x="680" y="400" />
            </Array>
          </mxGeometry>
        </mxCell>
        <mxCell id="s1sZhIJlIn24XAroQYDZ-12" value="TemplateDataProvider.js" style="rounded=0;whiteSpace=wrap;html=1;fillColor=#f8cecc;strokeColor=#b85450;" vertex="1" parent="1">
          <mxGeometry x="400" y="440" width="240" height="40" as="geometry" />
        </mxCell>
        <mxCell id="s1sZhIJlIn24XAroQYDZ-21" value="" style="endArrow=none;html=1;rounded=0;" edge="1" parent="1">
          <mxGeometry width="50" height="50" relative="1" as="geometry">
            <mxPoint x="240" y="180" as="sourcePoint" />
            <mxPoint x="600" y="180" as="targetPoint" />
          </mxGeometry>
        </mxCell>
        <mxCell id="s1sZhIJlIn24XAroQYDZ-30" style="edgeStyle=orthogonalEdgeStyle;rounded=0;orthogonalLoop=1;jettySize=auto;html=1;exitX=0.5;exitY=0;exitDx=0;exitDy=0;entryX=0.426;entryY=1.075;entryDx=0;entryDy=0;entryPerimeter=0;" edge="1" parent="1" source="s1sZhIJlIn24XAroQYDZ-27" target="s1sZhIJlIn24XAroQYDZ-11">
          <mxGeometry relative="1" as="geometry">
            <Array as="points">
              <mxPoint x="180" y="400" />
              <mxPoint x="96" y="400" />
            </Array>
          </mxGeometry>
        </mxCell>
        <mxCell id="s1sZhIJlIn24XAroQYDZ-27" value="在该方法内部会调用映射类以完成sheet实例初始化，而映射类即是我们可以增加的维度" style="ellipse;whiteSpace=wrap;html=1;" vertex="1" parent="1">
          <mxGeometry x="40" y="450" width="280" height="140" as="geometry" />
        </mxCell>
      </root>
    </mxGraphModel>
  </diagram>
</mxfile>
